<?xml version="1.0" standalone="no"?>
<!DOCTYPE svg PUBLIC "-//W3C//DTD SVG 20010904//EN"
 "http://www.w3.org/TR/2001/REC-SVG-20010904/DTD/svg10.dtd">
<svg version="1.0" xmlns="http://www.w3.org/2000/svg"
 width="558.000000pt" height="558.000000pt" viewBox="0 0 558.000000 558.000000"
 preserveAspectRatio="xMidYMid meet">
<metadata>
Created by potrace 1.14, written by Peter Selinger 2001-2017
</metadata>
<g transform="translate(0.000000,558.000000) scale(0.100000,-0.100000)"
fill="#000000" stroke="none">
<path d="M2540 5569 c-1256 -112 -2287 -1064 -2499 -2310 -131 -762 67 -1561
535 -2165 558 -720 1409 -1123 2304 -1091 766 28 1469 353 1975 914 604 668
849 1575 664 2453 -235 1113 -1136 1978 -2259 2169 -228 39 -493 50 -720 30z
m1480 -1467 c0 -87 3 -274 7 -414 l6 -255 -68 -17 c-37 -9 -71 -13 -75 -9 -4
4 -15 31 -25 58 -66 184 -134 303 -233 407 -59 62 -92 87 -156 119 -128 63
-183 70 -509 67 l-282 -3 -6 -95 c-4 -52 -10 -319 -15 -592 l-7 -498 124 0
c179 1 298 14 348 40 88 45 153 140 197 290 l22 75 61 3 61 3 0 -496 0 -496
-61 3 -61 3 -25 85 c-44 153 -100 233 -198 281 -64 31 -69 32 -261 41 -108 5
-199 6 -202 3 -14 -13 11 -808 28 -920 23 -149 71 -238 153 -285 48 -27 111
-43 230 -55 l57 -6 0 -60 0 -59 -790 0 -790 0 0 59 0 60 48 6 c163 22 235 52
283 118 89 123 112 373 113 1227 0 730 -20 1041 -76 1171 -28 66 -101 131
-170 152 -29 9 -86 19 -125 23 l-73 7 0 58 0 59 1235 0 1235 0 0 -158z"/>
</g>
</svg>
